<mxfile host="Electron" agent="Mozilla/5.0 (Windows NT 10.0; Win64; x64) AppleWebKit/537.36 (KHTML, like Gecko) draw.io/24.7.17 Chrome/128.0.6613.36 Electron/32.0.1 Safari/537.36" version="24.7.17">
  <diagram name="Página-1" id="S83OBo4P6-lDqBqYVNgS">
    <mxGraphModel dx="880" dy="532" grid="1" gridSize="10" guides="1" tooltips="1" connect="1" arrows="1" fold="1" page="1" pageScale="1" pageWidth="827" pageHeight="1169" math="0" shadow="0">
      <root>
        <mxCell id="0" />
        <mxCell id="1" parent="0" />
        <mxCell id="LarFTfPTla-RH2m5wMnC-1" value="ID" style="swimlane;fontStyle=0;childLayout=stackLayout;horizontal=1;startSize=30;horizontalStack=0;resizeParent=1;resizeParentMax=0;resizeLast=0;collapsible=1;marginBottom=0;whiteSpace=wrap;html=1;" vertex="1" parent="1">
          <mxGeometry x="140" y="30" width="140" height="90" as="geometry" />
        </mxCell>
        <mxCell id="LarFTfPTla-RH2m5wMnC-2" value="TITULO" style="text;html=1;align=center;verticalAlign=middle;resizable=0;points=[];autosize=1;strokeColor=none;fillColor=none;" vertex="1" parent="LarFTfPTla-RH2m5wMnC-1">
          <mxGeometry y="30" width="140" height="30" as="geometry" />
        </mxCell>
        <mxCell id="LarFTfPTla-RH2m5wMnC-3" value="Descripción" style="text;html=1;align=center;verticalAlign=middle;resizable=0;points=[];autosize=1;strokeColor=none;fillColor=none;" vertex="1" parent="LarFTfPTla-RH2m5wMnC-1">
          <mxGeometry y="60" width="140" height="30" as="geometry" />
        </mxCell>
        <mxCell id="LarFTfPTla-RH2m5wMnC-5" value="REGLAS DEL&lt;div&gt;NEGOCIO&lt;/div&gt;" style="swimlane;fontStyle=0;childLayout=stackLayout;horizontal=1;startSize=60;horizontalStack=0;resizeParent=1;resizeParentMax=0;resizeLast=0;collapsible=1;marginBottom=0;whiteSpace=wrap;html=1;" vertex="1" parent="1">
          <mxGeometry x="140" y="90" width="140" height="60" as="geometry" />
        </mxCell>
        <mxCell id="LarFTfPTla-RH2m5wMnC-6" value="-El DNI debe corresponder a un cliente del banco.&lt;div&gt;-El monto del credito a soliciar no debe superar los 400 mil.&lt;/div&gt;" style="swimlane;fontStyle=0;childLayout=stackLayout;horizontal=1;startSize=60;horizontalStack=0;resizeParent=1;resizeParentMax=0;resizeLast=0;collapsible=1;marginBottom=0;whiteSpace=wrap;html=1;" vertex="1" parent="1">
          <mxGeometry x="280" y="90" width="460" height="60" as="geometry" />
        </mxCell>
        <mxCell id="LarFTfPTla-RH2m5wMnC-7" value="CRITERIOS DE ACEPTACION" style="swimlane;fontStyle=0;childLayout=stackLayout;horizontal=1;startSize=60;horizontalStack=0;resizeParent=1;resizeParentMax=0;resizeLast=0;collapsible=1;marginBottom=0;whiteSpace=wrap;html=1;" vertex="1" parent="1">
          <mxGeometry x="140" y="200" width="170" height="60" as="geometry" />
        </mxCell>
        <mxCell id="LarFTfPTla-RH2m5wMnC-8" value="" style="swimlane;fontStyle=0;childLayout=stackLayout;horizontal=1;startSize=60;horizontalStack=0;resizeParent=1;resizeParentMax=0;resizeLast=0;collapsible=1;marginBottom=0;whiteSpace=wrap;html=1;" vertex="1" parent="1">
          <mxGeometry x="310" y="200" width="430" height="60" as="geometry" />
        </mxCell>
        <mxCell id="LarFTfPTla-RH2m5wMnC-9" value="ESCENARIO 1:" style="swimlane;fontStyle=0;childLayout=stackLayout;horizontal=1;startSize=120;horizontalStack=0;resizeParent=1;resizeParentMax=0;resizeLast=0;collapsible=1;marginBottom=0;whiteSpace=wrap;html=1;" vertex="1" parent="1">
          <mxGeometry x="210" y="260" width="100" height="120" as="geometry" />
        </mxCell>
        <mxCell id="LarFTfPTla-RH2m5wMnC-10" value="Inicio de Tramite Exitoso:&lt;div&gt;Dado que el DNI &quot;40404040&quot; pertenece a un cliente del banco y que el monto a solicitar &quot;200.000&quot; es menor a 400.000.&lt;/div&gt;&lt;div&gt;Cuando el cliente ingresa DNI &quot;40404040&quot; el nombre &quot;Rico, Puerto&quot;, mail&amp;nbsp;&lt;/div&gt;&lt;div&gt;&quot;abc&quot;, tipo de credito &quot;Personal&quot; y monto 200.000.&lt;/div&gt;&lt;div&gt;Entonces el sistema almacena en tramite para analizar e imprime un comprobante para el cliente.&lt;/div&gt;" style="swimlane;fontStyle=0;childLayout=stackLayout;horizontal=1;startSize=120;horizontalStack=0;resizeParent=1;resizeParentMax=0;resizeLast=0;collapsible=1;marginBottom=0;whiteSpace=wrap;html=1;" vertex="1" parent="1">
          <mxGeometry x="310" y="260" width="430" height="120" as="geometry" />
        </mxCell>
        <mxCell id="LarFTfPTla-RH2m5wMnC-11" value="" style="swimlane;startSize=0;" vertex="1" parent="1">
          <mxGeometry x="140" y="30" width="600" height="590" as="geometry" />
        </mxCell>
        <mxCell id="LarFTfPTla-RH2m5wMnC-12" value="ESCENARIO 2:" style="swimlane;fontStyle=0;childLayout=stackLayout;horizontal=1;startSize=120;horizontalStack=0;resizeParent=1;resizeParentMax=0;resizeLast=0;collapsible=1;marginBottom=0;whiteSpace=wrap;html=1;" vertex="1" parent="LarFTfPTla-RH2m5wMnC-11">
          <mxGeometry x="70" y="350" width="100" height="120" as="geometry" />
        </mxCell>
        <mxCell id="LarFTfPTla-RH2m5wMnC-13" value="Inicio de Tramite Fallido por DNI inexistente:&lt;div&gt;Dado que el DNI &quot;43015801&quot; no pertenece a un cliente del banco y que el monto a solicitar &quot;200.000&quot; es menor a 400.000.&lt;br&gt;&lt;/div&gt;&lt;div&gt;&lt;div&gt;Cuando el cliente ingresa DNI &quot;43015801&quot; el nombre &quot;Paolo, Tomas&quot;, mail&amp;nbsp;&lt;/div&gt;&lt;div&gt;&quot;abc&quot;, tipo de credito &quot;Personal&quot; y monto 200.000.&lt;/div&gt;&lt;/div&gt;&lt;div&gt;Entonces el sistema envia un correo al mail ingresado con los pasos para hacerse cliente del banco.&lt;/div&gt;" style="swimlane;fontStyle=0;childLayout=stackLayout;horizontal=1;startSize=120;horizontalStack=0;resizeParent=1;resizeParentMax=0;resizeLast=0;collapsible=1;marginBottom=0;whiteSpace=wrap;html=1;" vertex="1" parent="LarFTfPTla-RH2m5wMnC-11">
          <mxGeometry x="170" y="350" width="430" height="120" as="geometry" />
        </mxCell>
        <mxCell id="LarFTfPTla-RH2m5wMnC-14" value="ESCENARIO 3:" style="swimlane;fontStyle=0;childLayout=stackLayout;horizontal=1;startSize=120;horizontalStack=0;resizeParent=1;resizeParentMax=0;resizeLast=0;collapsible=1;marginBottom=0;whiteSpace=wrap;html=1;" vertex="1" parent="LarFTfPTla-RH2m5wMnC-11">
          <mxGeometry x="70" y="470" width="100" height="120" as="geometry" />
        </mxCell>
        <mxCell id="LarFTfPTla-RH2m5wMnC-15" value="Inicio de Tramite Fallid por Monto Invalido:&lt;div&gt;Dado q el DNI 10101010 pertenece a un cliente del banco y que el monto a solicitar &quot;1M&quot; es mayor a 400 mil.&lt;/div&gt;&lt;div&gt;Cuando el cliente ingres DNI 10101010 nombre &quot;Sergio Paoleti &quot;mail &quot;xxxxxx&quot;, tipo de credito VIVIENDA y mono &quot;1M&quot;.&lt;/div&gt;&lt;div&gt;Entonce el sistema rechaza el inico de tramite y muestra el mensaje &quot;El monto solicitado excede el limite permitido&quot;&lt;/div&gt;" style="swimlane;fontStyle=0;childLayout=stackLayout;horizontal=1;startSize=120;horizontalStack=0;resizeParent=1;resizeParentMax=0;resizeLast=0;collapsible=1;marginBottom=0;whiteSpace=wrap;html=1;" vertex="1" parent="LarFTfPTla-RH2m5wMnC-11">
          <mxGeometry x="170" y="470" width="430" height="120" as="geometry" />
        </mxCell>
        <mxCell id="LarFTfPTla-RH2m5wMnC-4" value="Iniciar Tramite" style="swimlane;fontStyle=0;childLayout=stackLayout;horizontal=1;startSize=30;horizontalStack=0;resizeParent=1;resizeParentMax=0;resizeLast=0;collapsible=1;marginBottom=0;whiteSpace=wrap;html=1;" vertex="1" parent="LarFTfPTla-RH2m5wMnC-11">
          <mxGeometry x="140" width="460" height="60" as="geometry" />
        </mxCell>
        <mxCell id="LarFTfPTla-RH2m5wMnC-16" value="Como cliente quiero inciar un tramite para solicitar un credito bancario" style="text;html=1;align=center;verticalAlign=middle;resizable=0;points=[];autosize=1;strokeColor=none;fillColor=none;" vertex="1" parent="LarFTfPTla-RH2m5wMnC-4">
          <mxGeometry y="30" width="460" height="30" as="geometry" />
        </mxCell>
        <mxCell id="LarFTfPTla-RH2m5wMnC-17" value="ID" style="swimlane;fontStyle=0;childLayout=stackLayout;horizontal=1;startSize=30;horizontalStack=0;resizeParent=1;resizeParentMax=0;resizeLast=0;collapsible=1;marginBottom=0;whiteSpace=wrap;html=1;" vertex="1" parent="1">
          <mxGeometry x="140" y="630" width="140" height="90" as="geometry" />
        </mxCell>
        <mxCell id="LarFTfPTla-RH2m5wMnC-18" value="TITULO" style="text;html=1;align=center;verticalAlign=middle;resizable=0;points=[];autosize=1;strokeColor=none;fillColor=none;" vertex="1" parent="LarFTfPTla-RH2m5wMnC-17">
          <mxGeometry y="30" width="140" height="30" as="geometry" />
        </mxCell>
        <mxCell id="LarFTfPTla-RH2m5wMnC-19" value="Descripción" style="text;html=1;align=center;verticalAlign=middle;resizable=0;points=[];autosize=1;strokeColor=none;fillColor=none;" vertex="1" parent="LarFTfPTla-RH2m5wMnC-17">
          <mxGeometry y="60" width="140" height="30" as="geometry" />
        </mxCell>
        <mxCell id="LarFTfPTla-RH2m5wMnC-20" value="Consultar Estado de Tramite" style="swimlane;fontStyle=0;childLayout=stackLayout;horizontal=1;startSize=30;horizontalStack=0;resizeParent=1;resizeParentMax=0;resizeLast=0;collapsible=1;marginBottom=0;whiteSpace=wrap;html=1;" vertex="1" parent="1">
          <mxGeometry x="280" y="630" width="460" height="60" as="geometry" />
        </mxCell>
        <mxCell id="LarFTfPTla-RH2m5wMnC-32" value="Como cliente quiero consultar el estado de un tramite para saber su progreso." style="text;html=1;align=center;verticalAlign=middle;resizable=0;points=[];autosize=1;strokeColor=none;fillColor=none;" vertex="1" parent="LarFTfPTla-RH2m5wMnC-20">
          <mxGeometry y="30" width="460" height="30" as="geometry" />
        </mxCell>
        <mxCell id="LarFTfPTla-RH2m5wMnC-21" value="REGLAS DEL&lt;div&gt;NEGOCIO&lt;/div&gt;" style="swimlane;fontStyle=0;childLayout=stackLayout;horizontal=1;startSize=60;horizontalStack=0;resizeParent=1;resizeParentMax=0;resizeLast=0;collapsible=1;marginBottom=0;whiteSpace=wrap;html=1;" vertex="1" parent="1">
          <mxGeometry x="140" y="690" width="140" height="60" as="geometry" />
        </mxCell>
        <mxCell id="LarFTfPTla-RH2m5wMnC-22" value="-El numero de comprobante debe estar registrado en el sistema&lt;div&gt;-El numero de consultas invalidas debe ser menor a 3.&lt;/div&gt;" style="swimlane;fontStyle=0;childLayout=stackLayout;horizontal=1;startSize=60;horizontalStack=0;resizeParent=1;resizeParentMax=0;resizeLast=0;collapsible=1;marginBottom=0;whiteSpace=wrap;html=1;" vertex="1" parent="1">
          <mxGeometry x="280" y="690" width="460" height="60" as="geometry" />
        </mxCell>
        <mxCell id="LarFTfPTla-RH2m5wMnC-23" value="CRITERIOS DE ACEPTACION" style="swimlane;fontStyle=0;childLayout=stackLayout;horizontal=1;startSize=60;horizontalStack=0;resizeParent=1;resizeParentMax=0;resizeLast=0;collapsible=1;marginBottom=0;whiteSpace=wrap;html=1;" vertex="1" parent="1">
          <mxGeometry x="140" y="800" width="170" height="60" as="geometry" />
        </mxCell>
        <mxCell id="LarFTfPTla-RH2m5wMnC-24" value="" style="swimlane;fontStyle=0;childLayout=stackLayout;horizontal=1;startSize=60;horizontalStack=0;resizeParent=1;resizeParentMax=0;resizeLast=0;collapsible=1;marginBottom=0;whiteSpace=wrap;html=1;" vertex="1" parent="1">
          <mxGeometry x="310" y="800" width="430" height="60" as="geometry" />
        </mxCell>
        <mxCell id="LarFTfPTla-RH2m5wMnC-25" value="ESCENARIO 1:" style="swimlane;fontStyle=0;childLayout=stackLayout;horizontal=1;startSize=120;horizontalStack=0;resizeParent=1;resizeParentMax=0;resizeLast=0;collapsible=1;marginBottom=0;whiteSpace=wrap;html=1;" vertex="1" parent="1">
          <mxGeometry x="210" y="860" width="100" height="120" as="geometry" />
        </mxCell>
        <mxCell id="LarFTfPTla-RH2m5wMnC-26" value="Consulta Exitosa:&lt;div&gt;Dado que el numero de comprobante &quot;123456&quot; existe en el sistema&lt;/div&gt;&lt;div&gt;Cuando el cliente ingresa el numero de comprobante &quot;123456&quot;&lt;/div&gt;&lt;div&gt;Entonces el sistema muestra un informe del estado del tramite&lt;/div&gt;" style="swimlane;fontStyle=0;childLayout=stackLayout;horizontal=1;startSize=120;horizontalStack=0;resizeParent=1;resizeParentMax=0;resizeLast=0;collapsible=1;marginBottom=0;whiteSpace=wrap;html=1;" vertex="1" parent="1">
          <mxGeometry x="310" y="860" width="430" height="120" as="geometry" />
        </mxCell>
        <mxCell id="LarFTfPTla-RH2m5wMnC-27" value="" style="swimlane;startSize=0;" vertex="1" parent="1">
          <mxGeometry x="140" y="630" width="600" height="590" as="geometry" />
        </mxCell>
        <mxCell id="LarFTfPTla-RH2m5wMnC-28" value="ESCENARIO 2:" style="swimlane;fontStyle=0;childLayout=stackLayout;horizontal=1;startSize=120;horizontalStack=0;resizeParent=1;resizeParentMax=0;resizeLast=0;collapsible=1;marginBottom=0;whiteSpace=wrap;html=1;" vertex="1" parent="LarFTfPTla-RH2m5wMnC-27">
          <mxGeometry x="70" y="350" width="100" height="120" as="geometry" />
        </mxCell>
        <mxCell id="LarFTfPTla-RH2m5wMnC-29" value="ConsultaFallida por numero incorrecto, por primera o segunda vez:&lt;div&gt;Dado que el numero de comprobante &quot;1111&quot; no e&lt;span style=&quot;background-color: initial;&quot;&gt;xiste en el sistema y que el numero de consultas invalidas por el usuario es 1.&lt;/span&gt;&lt;/div&gt;&lt;div&gt;Cuando el cliente ingresa el numero de comprobante &quot;1111&quot;&lt;/div&gt;&lt;div&gt;Entonces el sistema muestra el mensaje &quot;Tramite Inexistente&quot;&lt;/div&gt;" style="swimlane;fontStyle=0;childLayout=stackLayout;horizontal=1;startSize=120;horizontalStack=0;resizeParent=1;resizeParentMax=0;resizeLast=0;collapsible=1;marginBottom=0;whiteSpace=wrap;html=1;" vertex="1" parent="LarFTfPTla-RH2m5wMnC-27">
          <mxGeometry x="170" y="350" width="430" height="120" as="geometry" />
        </mxCell>
        <mxCell id="LarFTfPTla-RH2m5wMnC-30" value="ESCENARIO 3:" style="swimlane;fontStyle=0;childLayout=stackLayout;horizontal=1;startSize=120;horizontalStack=0;resizeParent=1;resizeParentMax=0;resizeLast=0;collapsible=1;marginBottom=0;whiteSpace=wrap;html=1;" vertex="1" parent="LarFTfPTla-RH2m5wMnC-27">
          <mxGeometry x="70" y="470" width="100" height="120" as="geometry" />
        </mxCell>
        <mxCell id="LarFTfPTla-RH2m5wMnC-31" value="Consulta Fallida por numero incorrecto, por tercera vez:&lt;div&gt;Dado que el numero de comprobante &quot;55555&quot; no existe en el sistema, y que el numero de consultas invalidadas por el usuario es 2.&lt;/div&gt;&lt;div&gt;Cuando el cliente ingresa el numero de comprobante &quot;55555&quot;&lt;/div&gt;&lt;div&gt;Entonces el sistema bloquea la ip del usuario por 24 horas y muestra el mensaje &quot;Usted ha excedido el número de consultas inválidas&quot;.&lt;/div&gt;" style="swimlane;fontStyle=0;childLayout=stackLayout;horizontal=1;startSize=120;horizontalStack=0;resizeParent=1;resizeParentMax=0;resizeLast=0;collapsible=1;marginBottom=0;whiteSpace=wrap;html=1;" vertex="1" parent="LarFTfPTla-RH2m5wMnC-27">
          <mxGeometry x="170" y="470" width="430" height="120" as="geometry" />
        </mxCell>
        <mxCell id="LarFTfPTla-RH2m5wMnC-33" value="ID" style="swimlane;fontStyle=0;childLayout=stackLayout;horizontal=1;startSize=30;horizontalStack=0;resizeParent=1;resizeParentMax=0;resizeLast=0;collapsible=1;marginBottom=0;whiteSpace=wrap;html=1;" vertex="1" parent="1">
          <mxGeometry x="140" y="1250" width="140" height="90" as="geometry" />
        </mxCell>
        <mxCell id="LarFTfPTla-RH2m5wMnC-34" value="TITULO" style="text;html=1;align=center;verticalAlign=middle;resizable=0;points=[];autosize=1;strokeColor=none;fillColor=none;" vertex="1" parent="LarFTfPTla-RH2m5wMnC-33">
          <mxGeometry y="30" width="140" height="30" as="geometry" />
        </mxCell>
        <mxCell id="LarFTfPTla-RH2m5wMnC-35" value="Descripción" style="text;html=1;align=center;verticalAlign=middle;resizable=0;points=[];autosize=1;strokeColor=none;fillColor=none;" vertex="1" parent="LarFTfPTla-RH2m5wMnC-33">
          <mxGeometry y="60" width="140" height="30" as="geometry" />
        </mxCell>
        <mxCell id="LarFTfPTla-RH2m5wMnC-36" value="Pedir Listado de Creditos Aprobados" style="swimlane;fontStyle=0;childLayout=stackLayout;horizontal=1;startSize=20;horizontalStack=0;resizeParent=1;resizeParentMax=0;resizeLast=0;collapsible=1;marginBottom=0;whiteSpace=wrap;html=1;" vertex="1" parent="1">
          <mxGeometry x="280" y="1250" width="460" height="60" as="geometry" />
        </mxCell>
        <mxCell id="LarFTfPTla-RH2m5wMnC-48" value="Como gerente del banco quier pedir un listado de creditos aprobados para poder&amp;nbsp;&lt;div&gt;monitorear las&lt;span style=&quot;background-color: initial;&quot;&gt;&amp;nbsp;finanzas del banco&lt;/span&gt;&lt;/div&gt;" style="text;html=1;align=center;verticalAlign=middle;resizable=0;points=[];autosize=1;strokeColor=none;fillColor=none;" vertex="1" parent="LarFTfPTla-RH2m5wMnC-36">
          <mxGeometry y="20" width="460" height="40" as="geometry" />
        </mxCell>
        <mxCell id="LarFTfPTla-RH2m5wMnC-37" value="REGLAS DEL&lt;div&gt;NEGOCIO&lt;/div&gt;" style="swimlane;fontStyle=0;childLayout=stackLayout;horizontal=1;startSize=60;horizontalStack=0;resizeParent=1;resizeParentMax=0;resizeLast=0;collapsible=1;marginBottom=0;whiteSpace=wrap;html=1;" vertex="1" parent="1">
          <mxGeometry x="140" y="1310" width="140" height="60" as="geometry" />
        </mxCell>
        <mxCell id="LarFTfPTla-RH2m5wMnC-38" value="-Las fechas ingresadas deben ser validas. Desde que se creo el archivo hasta el presente." style="swimlane;fontStyle=0;childLayout=stackLayout;horizontal=1;startSize=60;horizontalStack=0;resizeParent=1;resizeParentMax=0;resizeLast=0;collapsible=1;marginBottom=0;whiteSpace=wrap;html=1;" vertex="1" parent="1">
          <mxGeometry x="280" y="1310" width="460" height="60" as="geometry" />
        </mxCell>
        <mxCell id="LarFTfPTla-RH2m5wMnC-39" value="CRITERIOS DE ACEPTACION" style="swimlane;fontStyle=0;childLayout=stackLayout;horizontal=1;startSize=60;horizontalStack=0;resizeParent=1;resizeParentMax=0;resizeLast=0;collapsible=1;marginBottom=0;whiteSpace=wrap;html=1;" vertex="1" parent="1">
          <mxGeometry x="140" y="1420" width="170" height="60" as="geometry" />
        </mxCell>
        <mxCell id="LarFTfPTla-RH2m5wMnC-40" value="" style="swimlane;fontStyle=0;childLayout=stackLayout;horizontal=1;startSize=60;horizontalStack=0;resizeParent=1;resizeParentMax=0;resizeLast=0;collapsible=1;marginBottom=0;whiteSpace=wrap;html=1;" vertex="1" parent="1">
          <mxGeometry x="310" y="1420" width="430" height="60" as="geometry" />
        </mxCell>
        <mxCell id="LarFTfPTla-RH2m5wMnC-41" value="ESCENARIO 1:" style="swimlane;fontStyle=0;childLayout=stackLayout;horizontal=1;startSize=120;horizontalStack=0;resizeParent=1;resizeParentMax=0;resizeLast=0;collapsible=1;marginBottom=0;whiteSpace=wrap;html=1;" vertex="1" parent="1">
          <mxGeometry x="210" y="1480" width="100" height="120" as="geometry" />
        </mxCell>
        <mxCell id="LarFTfPTla-RH2m5wMnC-42" value="Solicitud de Listado Exitoso con Prestamos Aprobados:&lt;div&gt;Dado que las fechas &quot;1.1.2000&quot; y &quot;1.1.2005&quot; existen&lt;/div&gt;&lt;div&gt;y que existen Prestamos Aprobados en esas fechas.&lt;/div&gt;&lt;div&gt;Cuando el gerente ingresa las fechas &quot;.1.1.2000&quot; y &quot;1.1.2005&quot;&lt;/div&gt;&lt;div&gt;Entonces el sistema imprime un listado con la informacion de cada uno de los prestamos aprobados entre esas dos fechas.&lt;/div&gt;" style="swimlane;fontStyle=0;childLayout=stackLayout;horizontal=1;startSize=120;horizontalStack=0;resizeParent=1;resizeParentMax=0;resizeLast=0;collapsible=1;marginBottom=0;whiteSpace=wrap;html=1;" vertex="1" parent="1">
          <mxGeometry x="310" y="1480" width="430" height="120" as="geometry" />
        </mxCell>
        <mxCell id="LarFTfPTla-RH2m5wMnC-43" value="" style="swimlane;startSize=0;" vertex="1" parent="1">
          <mxGeometry x="140" y="1250" width="600" height="590" as="geometry" />
        </mxCell>
        <mxCell id="LarFTfPTla-RH2m5wMnC-44" value="ESCENARIO 2:" style="swimlane;fontStyle=0;childLayout=stackLayout;horizontal=1;startSize=120;horizontalStack=0;resizeParent=1;resizeParentMax=0;resizeLast=0;collapsible=1;marginBottom=0;whiteSpace=wrap;html=1;" vertex="1" parent="LarFTfPTla-RH2m5wMnC-43">
          <mxGeometry x="70" y="350" width="100" height="120" as="geometry" />
        </mxCell>
        <mxCell id="LarFTfPTla-RH2m5wMnC-45" value="Solicitud de Listado Fallido por fechas invalidas:&lt;div&gt;Dado que la fecha &quot;9.10.20&quot; existe y la fecha &quot;9.10.29&quot; no existe.&lt;/div&gt;&lt;div&gt;Cuando el gerente ingrsa las fechas 9.10.20 y 9.10.24&lt;/div&gt;&lt;div&gt;Entonces el sistema informa &quot;Las fechas ingresadas no son validas&quot;.&lt;/div&gt;" style="swimlane;fontStyle=0;childLayout=stackLayout;horizontal=1;startSize=120;horizontalStack=0;resizeParent=1;resizeParentMax=0;resizeLast=0;collapsible=1;marginBottom=0;whiteSpace=wrap;html=1;" vertex="1" parent="LarFTfPTla-RH2m5wMnC-43">
          <mxGeometry x="170" y="350" width="430" height="120" as="geometry" />
        </mxCell>
        <mxCell id="LarFTfPTla-RH2m5wMnC-46" value="ESCENARIO 3:" style="swimlane;fontStyle=0;childLayout=stackLayout;horizontal=1;startSize=120;horizontalStack=0;resizeParent=1;resizeParentMax=0;resizeLast=0;collapsible=1;marginBottom=0;whiteSpace=wrap;html=1;" vertex="1" parent="LarFTfPTla-RH2m5wMnC-43">
          <mxGeometry x="70" y="470" width="100" height="120" as="geometry" />
        </mxCell>
        <mxCell id="LarFTfPTla-RH2m5wMnC-47" value="Solicitud de Listado Fallido por falta de Prestamos Aprobados:&lt;div&gt;&lt;div&gt;Dado que las fechas &quot;1.1.2002&quot; y &quot;1.1.2003&quot; existen&lt;/div&gt;&lt;div&gt;y que no existen Prestamos Aprobados en esas fechas.&lt;/div&gt;&lt;div&gt;Cuando el gerente ingresa las fechas &quot;.1.1.2002&quot; y &quot;1.1.2003&quot;&lt;/div&gt;&lt;/div&gt;&lt;div&gt;Entonces el sistema informa por pantalla &quot;No hay creditos aprobados entre las fechas ingresadas&quot;.&lt;/div&gt;" style="swimlane;fontStyle=0;childLayout=stackLayout;horizontal=1;startSize=120;horizontalStack=0;resizeParent=1;resizeParentMax=0;resizeLast=0;collapsible=1;marginBottom=0;whiteSpace=wrap;html=1;" vertex="1" parent="LarFTfPTla-RH2m5wMnC-43">
          <mxGeometry x="170" y="470" width="430" height="120" as="geometry" />
        </mxCell>
      </root>
    </mxGraphModel>
  </diagram>
</mxfile>
